<?xml version="1.0" encoding="utf-8"?>
<!-- Generator: Adobe Illustrator 22.1.0, SVG Export Plug-In . SVG Version: 6.00 Build 0)  -->
<svg version="1.1" xmlns="http://www.w3.org/2000/svg" xmlns:xlink="http://www.w3.org/1999/xlink" x="0px" y="0px"
	 viewBox="0 0 2156 2160" style="enable-background:new 0 0 2156 2160;" xml:space="preserve">
<style type="text/css">
	.st0{fill:#595959;}
	.st1{fill:#121212;}
	.st2{fill:#F70303;}
	.st3{fill:#A11E1E;}
	.st4{fill:#FBFBFB;}
	.st5{fill:#633131;}
	.st6{fill:#FFFFFF;stroke:#121212;stroke-width:27;stroke-miterlimit:10;}
	.st7{fill:#E51F1A;}
</style>
<g id="Слой_1">
	<path class="st0" d="M983,137.2c12.9-16,39.6-25.7,43.5-48c0.7-4.1-0.2-8.2-1.6-12c-1.7-4.8-4.5-10-8.2-13.5
		c-9.9-9-26.7-5.1-38.7-4.5c-15.7,0.8-31.4,4-47,5.8c-38.9,4.7-78.3,11.1-116,21.6c-150.4,41.8-286.2,122.3-390.8,238.6
		c-34.6,38.4-62.3,82.8-88.8,127c-14.4,24.1-28.4,48.3-41.7,73c-9.6,17.8-19,36.5-25,56c-7.5,24.5-8.9,49.7-10.6,75
		c-1.7,25.1,2.7,50.3,6.5,75c3.9,25.1,7.3,50.1,12.6,75c2.9,13.8,6.7,27.3,9.9,41c1,4,4.2,11.8,1.8,15.6c-2.2,3.6-8.3,5.1-12,6.4
		c-9.9,3.4-20,6.5-30,9.7c-41,13.1-82.9,23.6-124,36.4c-18.9,5.9-46,13-46,37c0,3.1,0.1,6,0.9,9c3.2,12,12.9,15.6,23.1,20.8
		c19.9,10,40.7,18.4,61,27.6c54.1,24.4,108.7,47.8,163,71.8c17.1,7.5,34,15.4,51,23c10.8,4.8,23.2,9.2,33,15.8
		c7,4.7,10.7,14.1,15.1,21c8.5,13.4,17.2,26.7,27.2,39c29.5,36.3,64.2,67.4,101.7,95.1c191.1,140.9,423.1,224.1,655,267.5
		c38.8,7.3,77.8,13.4,117,17.6c20.9,2.2,41.9,4.8,63,4.8c14.8,0,29.2,1.6,44,0.2c5.3-0.5,10.9-0.1,16-2c3-1.1,5.7-3.1,8-5.3
		c15.6-14.6,7-35.4,1.7-52.9c-1.2-4-2.4-8-3.7-12c-20.4-61.2-40.7-133.7-1-192c16.3-23.9,39.6-42.1,62-60
		c33.5-26.8,68.2-52,102-78.4c67-52.3,130.3-108.2,190-168.6c46-46.6,90.7-94,128-148c36.6-52.8,72.9-105.7,80.7-171
		c8.8-73.7-22.4-144.7-69.1-200c-16.8-19.9-37.2-36.9-57.6-53c-5-3.9-10.2-7.6-15-11.8c-1.7-1.5-4.8-3.5-4.4-6.2
		c0.6-4.1,8.4-8.8,11.4-11.3c10.6-9.1,21.3-18.1,32-27.1c42.9-36,86.6-71,129-107.5l24-20.7c4.6-4,10.6-8.3,14-13.5
		c7-10.9,3.7-25.6-4.3-34.9c-6.9-7.9-16-9.1-25.7-11c-15.3-3-30.6-5.5-46-8.1c-64.3-10.6-128.5-22-193-31.1
		c-69.3-9.8-138.3-20.1-208-26.7c-52.1-5-104.7-2.9-157-4.2c-59.6-1.5-119.5-1.6-179,1c-26.3,1.2-52.7,0.3-79,2.1
		C1119.3,116,1051.3,128.6,983,137.2z"/>
	<path class="st1" d="M106,952.2c27,15.8,57.4,27.2,86,39.9c49.7,22,99.3,44.2,149,66.3c20.7,9.2,41.5,18.4,62,28.1
		c8.3,3.9,18.6,7,26,12.4c5.7,4.2,8.6,12.5,12.4,18.3c8.2,12.5,16.7,24.9,25.5,37c9.6,13,19.2,26.2,30.2,38
		c16.4,17.6,35.8,33.2,54.9,47.6c188.9,142.3,412.7,225.7,643,271.8c54.9,11,110.4,18.4,166,23.8c17,1.6,33.9,2.8,51,2.8
		c8.8,0,17.5,0.7,26-2c-1.1-7.5-4.6-14.8-7-22c-4.1-12.2-7.8-24.6-11.3-37c-17.1-60.1-29.3-124.6,3.8-182
		c16.8-29.2,43.6-51.4,69.5-72.2c33.8-27.1,68.9-52.6,103-79.2c33.7-26.3,66.9-53.2,99-81.4c87.4-77,169.4-159.8,234.3-257.2
		c17-25.5,34.7-51.5,46.2-80c20.7-51.2,17.6-111.8-4.4-162c-12.7-28.9-31.7-53.4-52.4-77c-21-23.8-47.5-43-73.7-60.7
		c-8.4-5.7-16.4-12-25-17.3c21.9-21.8,47.1-40.9,71-60.4c31.8-26,63.4-52.3,95-78.5c16.4-13.6,33-26.9,49-40.9
		c7.4-6.5,15.7-12.7,21-21.2c-9.4-0.7-18.7-3.4-28-4.9l-69-11.7c-68.6-11.5-137.2-23-206-33.1c-113.7-16.8-229.3-23.4-344-26.3
		c-31.2-0.8-62.8,0.6-94,1.9c-91.4,4-182.3,9.9-273,23.3c-35.8,5.3-71.6,11.4-107,18.9c-20.4,4.3-41.2,11.1-62,12.8
		c12.7-14.7,30.8-26.2,46-38.2c27-21.2,53.6-43.1,81-63.8c-5-2.1-12.6-0.1-18,0.6c-12,1.6-24,2.8-36,4.3
		c-54.2,6.5-107.1,15.5-159,32.8c-122.5,40.9-239.4,108.4-327.9,203.4c-36.3,39-64.6,82.9-92.5,128c-14.3,23-28.2,46.3-41.4,70
		c-13.4,23.9-25.5,47.2-32.2,74c-6.3,25.3-9.6,52.9-7.8,79c1.4,20.2,5.2,40.1,8.5,60c3.2,19.1,5.8,38.2,10.3,57
		c4.9,20.5,10.2,40.9,16.5,61c2.2,7.1,7.3,18.8,3.5,26c-2.8,5.2-9.6,6.8-14.8,8.3c-12.9,3.9-26.1,7-39,11.1
		c-37.4,11.7-75.4,21.8-113,32.7c-11.1,3.2-22.1,6.7-33,10.3C118,946.5,111,948.2,106,952.2z"/>
	<path class="st0" d="M426,413.2c11.5-6.4,21.7-15.5,32-23.6c15.7-12.3,31.7-24.3,48-35.7c42.1-29.5,87-54.6,133-77.5
		c29.8-14.8,60.9-27.1,92-38.8c17.9-6.8,37-12.3,54-21.2c10-5.2,19-12.6,28-19.3c12.4-9.3,24.8-18.8,37-28.5c10-8,20.2-15.9,30-24.2
		c5.6-4.7,11.7-9.2,16-15.2c-15.3,0-30.2,3.9-45,7.6c-22.2,5.6-44.3,11.8-66,19C684.5,189.3,589.8,242.9,512,315
		c-22.6,20.9-43.7,43.1-63,67.1C441.2,391.9,431.6,402,426,413.2 M267,951.2c3,3.1,6.1,2.6,10,3.8c3.8,1.2,7.3,3.5,11,5
		c20.7,8.2,42.6,13.5,64,19.6c75.9,21.6,152.6,40.3,230,55.8c98.2,19.7,198.1,33.9,298,40.7c36.7,2.5,73.3,3.5,110,5.1
		c46.9,2,94.1,1,141-1c120.4-5.3,241.4-21.2,357-57.1c41.7-12.9,82-29.1,122-46.5c57.2-25,111.5-56.9,161-95.1
		c28.8-22.2,55.1-46.8,82-71.2c49.2-44.5,95.7-101.7,90.9-172.2c-1-13.8-4.9-27.9-9.3-41c-11.3-34-32.6-61.9-57.7-87
		c-50-50-116.8-84.2-182-109.8c-21.7-8.5-43.7-16.3-66-23.2c-11.8-3.7-26.3-6.1-36-14c8.9-2.8,17.5-7.9,26-11.7
		c15.9-7.2,32-13.9,48-20.9c48.3-21,96.9-41.5,145-63.1c18.9-8.5,38.1-16.5,57-25c8.5-3.9,20.1-6.7,26-14.3
		c-122.1-23.7-245.2-37.6-369-46.1c-56.1-3.8-112.7-7.3-169-5.9c-50.4,1.2-100.7,5.4-151,8.9c-132.7,9.1-265.7,30.5-393,70.1
		c-132.3,41.1-257.5,103.7-361,196.9c-20.8,18.7-40.4,38.4-59.2,59.2c-11.2,12.5-23,25.2-32.5,39c-20.2,29.4-30,63.7-32.4,99
		c-0.7,10.8-1.3,21.3,0.6,32c2.6,14.4,10.3,28.2,17.1,41c14.4,27.6,32.5,53.3,56.5,73.6c25.8,21.8,54.1,39.8,82,58.8
		c6.6,4.5,13.3,9.1,19,14.7c1.7,1.7,5.6,4.7,4.7,7.5c-1.2,3.7-11.4,5.4-14.7,6.4c-15,4.7-30,9.1-45,13.5l-127,37.2
		c-11,3.2-21.9,6.6-33,9.5C280.6,945.3,273,946.4,267,951.2z"/>
	<path class="st2" d="M504,448.2c17.6-10,33.8-23.1,51-33.9c38.7-24.5,78.8-47.9,120-67.8c38.2-18.5,78.1-33.7,118-48.3
		c40.2-14.7,81.3-28.2,123-38.1c41.6-9.9,83.8-16.6,126-23.2c48.5-7.5,97.9-14.7,147-14.7c-3.3,1-6.5,1-10,1
		c5.1,2.1,10.7,0.5,16,0.1l31-2c38.2-2.6,76.7-4.1,115-4.1c-6-2.5-13.6-2-20-2c-11.4,0-22.7,0.4-34-1c5.8-1.7,12-0.8,18-1
		c9.4-0.4,18.6-1,28-1c25.6,0,51.3-1,77-1c51.3,0,102.7-2.2,154-1c20.6,0.5,41.4,0.1,62,1c18,0.8,36,3,54,3
		c-6.8-3.6-16.5-2.5-24-3.2c-18.9-1.8-38-3-57-3.9c-19.3-0.8-38.7-2.5-58-3.9c-17.3-1.2-34.7-1-52-2.2c-5.3-0.4-10.6-1.6-16-1.9
		c-20.9-0.9-42.1,0-63,0c-43.3,0-86.7-1-130,0c-198.1,4.9-404,28.4-584,117.7c-51.5,25.6-102,53.4-147,89.4
		c-11.4,9.1-22.7,18.5-33,28.8C511.9,439.3,506.6,443,504,448.2z"/>
	<path class="st3" d="M1477,199.2c6.9,2.9,15.6,1.8,23,2c13.3,0.3,26.8,1.2,40,2.1c46.7,3.2,93.3,6.2,140,9.9c-10.2,3-23.4-0.7-34-1
		c-27.9-0.7-56.1-2-84-2c-42.7-0.1-85.4,0.5-128,1c-26,0.3-52-0.6-78,0c-23,0.6-46,2-69,2c4.2,2.5,9.2,2,14,2c8.7,0,17.3-0.2,26,0
		c34,0.8,67.9,0,102,0c46.3,0,92.7,0.4,139,1c34.7,0.4,69.4-0.5,104,1c27.7,1.2,55.3,1.8,83,3c13,0.6,25.9,3,39,3
		c-3.3-6.1-13.7-6.6-20-7.8c-19.3-3.4-39.4-5.3-59-6.3c-32.7-1.6-65.4-4.6-98-6.9C1570.6,199.1,1523.6,199.2,1477,199.2 M1189,223.2
		c-6-2.5-14.7-1-21-0.3c-6.8,0.8-14.1,0.9-21,1.2c-42.5,1.9-84.9,9.7-127,15.8c-140.1,20.2-278.5,67.5-402,136.4
		c-38.8,21.7-79.1,44.2-114,71.9c3.1-4.2,7.3-7.3,11-11c10.5-10.3,21.6-20,33-29.2c39.1-31.6,82.5-57.1,127-80.1
		C808.5,259,956.1,224.4,1105,210c45.4-4.4,91.3-8.8,137-8.8c-3.7-1.6-8-1-12-1c-8.4,0-16.7,1-25,1c-32.1,0.2-64,1.6-96,3
		c-42.9,1.9-85.8,9.5-128,17.4c-79.5,14.9-158.1,35.7-233,66.6c-35.7,14.7-69.7,32.5-104,50.2c-50,25.8-95.2,60.6-137,97.9
		c-10,8.9-19.6,18.2-29,27.8c-1.9,1.9-9.6,8.8-6.2,12c3,2.7,8-2,10.1-3.7c9.4-7.7,19.1-14.8,29-21.8c40.5-28.7,82.1-55,126-78.2
		c36.2-19.1,73-38.2,111-53.6c98.9-40.3,204.6-65.3,310-80.9c31.3-4.6,62.6-7.9,94-10.9C1164.2,225.9,1176.9,223.2,1189,223.2z"/>
	<path class="st4" d="M537,475.2c8.5-2.5,16.4-7.8,24-12.2c14.3-8.2,28.5-16.7,43-24.5c39.1-21.2,78.9-40.3,120-57.3
		c118.7-49,246.9-77.9,373-100.6c48.6-8.8,97.9-13.1,147-16.5c62.3-4.3,124.6-8.4,187-9.9c35.6-0.9,71.4-2,107-2c11.4,0,22.7-1,34-1
		c9.8,0,21.6,0.8,31-2c-5-3.6-12.1-3.5-18-4.3c-15.3-2-30.7-2.4-46-3.9c-25.6-2.4-51.3-2.7-77-3.9c-36.6-1.6-73.3-3-110-3
		c-140.6,0-282.4,10-419,45.9c-73,19.2-143.2,47-211,79.9c-46.2,22.3-91.3,47.5-134,75.9C571.3,447,548.8,458.5,537,475.2z"/>
	<path class="st2" d="M1020,347.2c5.5,2.3,13.1,1,19,1h40c46,0,92.1-1,138,1c114.9,5,230.4,19.7,343,43.9
		c59.9,12.9,119.9,26,176,51.7c49.5,22.7,101.9,51.1,137.6,93.3c22,26,36,55.9,46.4,88c2-4.7,0.5-10.2-0.7-15
		c-2.5-10.7-6.5-20.9-10.8-31c-19.9-46.6-59-81.3-99.6-109.7c-40-28-85.3-48.6-131-65.3c-74.1-27.1-151.1-44-229-55.2
		c-29.6-4.3-59.2-8.7-89-11.6c-5.7-0.5-11.3,0.2-17-0.3c-17.8-1.7-35-3.8-53-3.8c4.2-2.3,8.3-2,13-2c-7-2.9-17.5-0.9-25-1
		c-16.6-0.2-33.3-1-50-1c-20.9,0-42.1-0.4-63,1.1c-4.4,0.3-8.6,2.1-13,2.7c-7.2,0.9-14.8,0.7-22,1.2c-24.4,1.7-48.6,3.8-73,6.8
		C1044.7,343.4,1032.1,344.1,1020,347.2z"/>
	<path class="st3" d="M940,360.2c29.4,0,58.7-4.7,88-6c34.9-1.5,70-1,105-1s70.1-0.5,105,1c69.8,3.1,139.9,12,209,22.2
		c18.4,2.7,36.6,6.7,55,9.5c51.7,7.6,101.9,19.5,152,34.6c69.4,20.8,138.4,49.8,193,98.9c28.5,25.7,51.8,56,63.7,92.8
		c3.9,12.1,6.6,24.4,8,37c0.8,6.5-0.5,14.4,3.3,20c1.9-5.7,1.6-11.1,2.2-17c3.4-35.4-9.7-70.6-29.2-100c-1,6.7,7.7,16,10.5,22
		c7.6,15.9,15.4,34.2,15.5,52c-5.1-9.6-7.1-20.9-11.4-31c-9.1-21.2-22.3-42.9-37.7-60c-23.3-25.8-52-45.5-81.8-63
		c-69.6-40.9-148-64-227-78.6c-19.4-3.6-38.6-8.5-58-12c-76.5-13.8-154.6-24-232-29.3c-84.1-5.8-168.6-4.1-253-4.1
		c12.8-6.3,31-5.5,45-7.2c31.9-3.8,63.9-7.2,96-7.8c-4.2-1.8-9.5-1-14-1c-11,0-22,1.5-33,2c-41.3,1.8-82.2,6.2-123,13.1
		c-12,2-24.2,3.9-36,6.6C949.5,355.1,943.8,355.8,940,360.2 M1290,333.2c5.9,2.5,13.6,0.6,20,1.2c11,1,22,3,33,3.7
		c8.4,0.6,16.6,0.4,25,1.3c58.5,6.3,117.5,14.6,175,27.3c90.1,19.9,181.3,48.7,259,99.7c16.3,10.7,32.9,22.5,47,36
		c5.2,4.9,10.8,9.7,15.6,15c5.3,5.8,10,12.4,16.4,17c-2.5-5.5-6.8-9.6-10.9-14c-6.8-7.4-13.5-14.6-21.1-21.1
		c-26.1-22.5-54.1-41.2-84-58.3c-6.5-3.7-12.4-8.6-19-12.1c-25.3-13.2-53.2-22.7-80-32.2c-35.7-12.7-72-24.2-109-32.7
		c-44.9-10.3-91.4-16.9-137-22.9c-29.5-3.9-59.3-6.5-89-7.8C1318.2,332.6,1302.5,329.5,1290,333.2z"/>
	<path class="st1" d="M812,727.2v2c-10.4,3.8-17.5,0.5-28-0.7c-12.6-1.5-25.4-1.6-38-3.1c-31.1-3.7-62-9.4-92-18.4
		c-25.2-7.6-48.5-17-69-34c-19.5-16.1-37.2-35.2-37.9-61.8c-1.1-47.5,42.9-80.8,76.9-106c-5.1-0.8-10.8,3.9-15,6.4
		c-11.2,6.7-22.5,13.6-33,21.5c-32.2,24.1-67.9,56-74.6,98.1c-2.1,13.4-0.7,28.8,2,42c5.8,28.6,23.3,49.9,44.6,69.2
		c31.4,28.4,67.6,49.9,106,67.5c50.6,23.2,105.2,36.2,159,49c6.8,1.6,13.2,4.4,20,5.9c39.6,8.7,80.7,16.2,121,20.3
		c21.7,2.2,43.3,2.8,65,4.3c18.5,1.3,37.4,2.9,56,2.9c85.9,0,172.5-16.3,255-40c71.1-20.4,142.8-43.5,198-94.9
		c23.4-21.8,46.5-48.9,39.6-83.1c-1.2-5.8-3.3-11.7-5.9-17c-10.1-20.2-28.1-35.1-47.6-45.7c-12.2-6.6-26.2-11.4-37-20.3
		c19.9-2.5,42.3,2.7,62,6.4c44.5,8.3,87.8,19,127,42.6c18.8,11.3,41.3,27.9,49.7,49c5.5,13.6,4.9,32,1.1,46c-2,7.2-6.4,13.4-6.8,21
		c14.6-9.2,27.5-24.1,37.6-38c9-12.5,17.2-26.3,22.1-41c11.1-33.4-1.6-67.7-21.1-95c-35.9-50.3-98.1-82.1-154.6-103.6
		c-50.2-19.1-101.6-33.3-154-44.8c-33.2-7.3-67.2-14.2-101-17.4c-45.5-4.3-91.3-4.3-137-3.2c-26.4,0.6-52.7-0.4-79,2.2
		c-77,7.4-152.1,26.5-225,51.8c-62.7,21.8-123.3,55-168.9,104c-18.9,20.4-33.7,52.8-24,81c3.4,9.9,10.6,18.6,17.9,26
		c10,10.1,21.9,18.5,34,25.9C773.9,714.5,792.9,722,812,727.2z"/>
	<path class="st5" d="M1296,413.2c4,1.7,8.7,1,13,1C1305,412.5,1300.3,413.2,1296,413.2z"/>
	<path class="st4" d="M788,727.2c-4.4-4.8-11.9-6.6-18-8.7c-12.6-4.2-25.4-8-38-12.1c-32.3-10.5-68.1-27.6-92-52.3
		c-6.1-6.3-11.7-13.6-14.4-22c-7.2-21.8,4.3-47,14.1-66c20.8-40.2,55.9-69.8,94.3-92.5c19.4-11.5,40.5-20,60-31.5
		c-5.7-2.2-14.3,2.3-20,4c-16.4,5-32.9,10-49,15.9c-49.4,18.2-103,39.4-141,77.2c-18.1,18.1-34.5,41.2-33.7,68
		c0.6,21.8,12.7,38.3,27.7,53c31.1,30.3,77.8,44.2,119,53.7c10.4,2.4,20.6,5.9,31,8.1c9.9,2.1,20,2.4,30,3.6
		C767.1,726.6,779.2,729.8,788,727.2z"/>
	<path class="st0" d="M871,566.2c0.8-7.6,5.8-13.9,10.1-20c6.3-8.8,13-17.2,19.3-26c3.6-5.1,7.8-9.9,9.6-16
		c-12.5,1.1-25.8,8.3-37,13.8c-31.3,15.4-62.9,36.6-76.5,70.2c-7.7,19-10.1,45.7,4,62c4.3,5,9.9,9.9,16.6,11.2
		c7.6,1.5,15.9-1.1,23-3.5c13.4-4.5,26.1-10.6,39-16.2c49-21.4,95.9-47.9,146-67c38.5-14.7,77.8-27.6,118-36.8
		c55.4-12.7,111.6-19.1,168-24.5c33.1-3.2,66.8-3.3,100-4.2c15.5-0.4,33,2.4,48-2c-8.6-7.1-22.5-9.7-33-12.7
		c-24.7-7.1-49.8-12.9-75-17.9c-28.3-5.7-57.2-11.3-86-13.3c-29.9-2-60.1-1.2-90,0.8c-57.3,3.9-113,12-167,32.5
		c-30.8,11.7-60.7,26.4-89,43.4l-30,18C883.4,561.3,877.5,565.5,871,566.2z"/>
	<path class="st3" d="M1881,534.2c2.5,6.4,7.7,13.6,13,18C1891.8,545.4,1886.5,538.7,1881,534.2z"/>
	<path class="st2" d="M842,691.2c2.7,9.5,15,13.8,23,18c13.7,7,27.1,14.9,41,21.8c5.2,2.5,10.8,4,16,6.5
		c37.7,17.9,80.5,31.4,122,36.4c7.3,0.9,14.7-0.1,22,0.4c26.7,1.8,54.3,1.8,81,0c27.9-1.9,56.2-1,82-14.1c-6.9-2.9-17.5-1-25-1
		c-19.4,0-38.6,1-58,1c-14.7,0-30.4,1.6-45-0.3c-27-3.5-53.1-12.1-80-15.7c16-5.1,34.5-2.6,51-4.2c38.5-3.7,73.7-10.1,106-32.9
		c22.1-15.5,41.8-36.1,54.8-60c4.7-8.6,8.7-17.8,12.1-27c1.7-4.8,2.9-11.7,6.6-15.4c3.6-3.6,9.9-5.6,14.5-7.9
		c10.9-5.4,21.8-11.1,33-15.8c-3.7-1.6-8-1-12-1h-22c-25.6,0-51.4-0.8-77,0.9c-28.8,2-58.5-2.6-87,4c-26.4,6.1-51.9,17.7-77,27.7
		c-39,15.6-77.6,32.3-116,49.3C886.1,671.8,864.4,682.5,842,691.2z"/>
	<path class="st5" d="M1299,580.2l1,1L1299,580.2 M1297,581.2l1,1L1297,581.2 M1295,582.2l1,1L1295,582.2 M1293,583.2l1,1
		L1293,583.2 M1291,584.2l1,1L1291,584.2 M1289,585.2l1,1L1289,585.2z"/>
	<path class="st4" d="M910,687.2c24.1,7.7,49.9,10.9,75,12c15.2,0.7,30.9,0.6,46-2.7c28.6-6.2,55.8-20.8,78-39.8
		c8.1-6.9,15.8-15.1,20.8-24.6c2.9-5.4,2.7-13.4,7.3-17.6c7.4-6.8,19.7-7.8,28.8-11.2c4.1-1.5,8.5-2.5,11-6.2
		c-19.4-2.5-40.6-3.9-60-0.4c-17.7,3.2-34.5,12-51,19c-30.7,12.9-61.4,25.9-92,39.1c-15.8,6.8-31.4,13.8-47,21
		C921.2,678.5,912.1,680.6,910,687.2z"/>
	<path class="st5" d="M1049,602.2l1,1L1049,602.2 M1044,604.2l1,1L1044,604.2 M1041,605.2l1,1L1041,605.2 M1039,606.2l1,1
		L1039,606.2 M1036,607.2l1,1L1036,607.2 M1034,608.2l1,1L1034,608.2 M1031,609.2l1,1L1031,609.2 M1029,610.2l1,1L1029,610.2
		 M1026,611.2l1,1L1026,611.2 M1023.7,612.5c-0.5,0.4,0.6,0.4,0.7,0.3C1024.8,612.4,1023.7,612.5,1023.7,612.5 M1021,613.2l1,1
		L1021,613.2 M1018.7,614.5c-0.5,0.4,0.6,0.4,0.7,0.3C1019.8,614.4,1018.7,614.5,1018.7,614.5 M1016,615.2l1,1L1016,615.2
		 M1013.7,616.5c-0.5,0.4,0.6,0.4,0.7,0.3C1014.8,616.4,1013.7,616.5,1013.7,616.5 M1011,617.2l1,1L1011,617.2 M1008.7,618.5
		c-0.5,0.4,0.6,0.4,0.7,0.3C1009.8,618.4,1008.7,618.5,1008.7,618.5 M1006,619.2l1,1L1006,619.2 M1003.7,620.5
		c-0.5,0.4,0.6,0.4,0.7,0.3C1004.8,620.4,1003.7,620.5,1003.7,620.5 M1001.7,621.5c-0.5,0.4,0.6,0.4,0.7,0.3
		C1002.8,621.4,1001.7,621.5,1001.7,621.5 M998.7,622.5c-0.4,0.4,0.6,0.4,0.7,0.3C999.8,622.4,998.7,622.5,998.7,622.5 M996.7,623.5
		c-0.4,0.4,0.6,0.4,0.7,0.3C997.8,623.4,996.7,623.5,996.7,623.5 M993,624.2c1.2,0.7,1.5,0.7,3,1C994.8,624.5,994.5,624.5,993,624.2
		 M991.7,625.5c-0.4,0.4,0.6,0.4,0.7,0.3C992.8,625.4,991.7,625.5,991.7,625.5 M989.7,626.5c-0.4,0.4,0.6,0.4,0.7,0.3
		C990.8,626.4,989.7,626.5,989.7,626.5 M986.7,627.5c-0.4,0.4,0.6,0.4,0.7,0.3C987.8,627.4,986.7,627.5,986.7,627.5 M984.7,628.5
		c-0.4,0.4,0.6,0.4,0.7,0.3C985.8,628.4,984.7,628.5,984.7,628.5 M981,629.2c1.2,0.7,1.5,0.7,3,1C982.8,629.5,982.5,629.5,981,629.2
		 M979.7,630.5c-0.4,0.4,0.6,0.4,0.7,0.3C980.8,630.4,979.7,630.5,979.7,630.5 M977.7,631.5c-0.4,0.4,0.6,0.4,0.7,0.3
		C978.8,631.4,977.7,631.5,977.7,631.5 M974,632.2c1.2,0.7,1.5,0.7,3,1C975.8,632.5,975.5,632.5,974,632.2 M972.7,633.5
		c-0.4,0.4,0.6,0.4,0.7,0.3C973.8,633.4,972.7,633.5,972.7,633.5 M969,634.2c1.2,0.7,1.5,0.7,3,1C970.8,634.5,970.5,634.5,969,634.2
		z"/>
	<path class="st1" d="M986,708.2c3.1,5.4,10.2,7.2,16,8.6c14.6,3.6,30.1,4.4,45,4.4c49.7,0,109.4-13.7,136.8-59
		c5.3-8.7,10.8-17.7,12.2-28c-36.5,1.7-50.8,44.4-80,59.8c-9.9,5.2-20.2,10.7-31,13.7c-18.3,5.2-39.1,5.2-58,4.4
		C1013.3,711.6,999.7,708.2,986,708.2z"/>
	<path class="st5" d="M967.7,635.5c-0.4,0.4,0.6,0.4,0.7,0.3C968.8,635.4,967.7,635.5,967.7,635.5 M965.7,636.5
		c-0.4,0.4,0.6,0.4,0.7,0.3C966.8,636.4,965.7,636.5,965.7,636.5 M963.7,637.5c-0.4,0.4,0.6,0.4,0.7,0.3
		C964.8,637.4,963.7,637.5,963.7,637.5 M960.7,638.5c-0.4,0.4,0.6,0.4,0.7,0.3C961.8,638.4,960.7,638.5,960.7,638.5 M958.7,639.5
		c-0.4,0.4,0.6,0.4,0.7,0.3C959.8,639.4,958.7,639.5,958.7,639.5 M956.7,640.5c-0.4,0.4,0.6,0.4,0.7,0.3
		C957.8,640.4,956.7,640.5,956.7,640.5 M953.7,641.5c-0.4,0.4,0.6,0.4,0.7,0.3C954.8,641.4,953.7,641.5,953.7,641.5 M951.7,642.5
		c-0.4,0.4,0.6,0.4,0.7,0.3C952.8,642.4,951.7,642.5,951.7,642.5 M949.7,643.5c-0.4,0.4,0.6,0.4,0.7,0.3
		C950.8,643.4,949.7,643.5,949.7,643.5 M946.7,644.5c-0.4,0.4,0.6,0.4,0.7,0.3C947.8,644.4,946.7,644.5,946.7,644.5 M944.7,645.5
		c-0.4,0.4,0.6,0.4,0.7,0.3C945.8,645.4,944.7,645.5,944.7,645.5 M942.7,646.5c-0.4,0.4,0.6,0.4,0.7,0.3
		C943.8,646.4,942.7,646.5,942.7,646.5 M940.7,647.5c-0.4,0.4,0.6,0.4,0.7,0.3C941.8,647.4,940.7,647.5,940.7,647.5 M938,648.2l1,1
		L938,648.2 M935.7,649.5c-0.4,0.4,0.6,0.4,0.7,0.3C936.8,649.4,935.7,649.5,935.7,649.5 M1231.3,649.9c0,0.1-0.1,1.1,0.3,0.7
		C1231.7,650.5,1231.8,649.4,1231.3,649.9z"/>
	<path class="st0" d="M1410,649.2c-2.8,9.5-1.1,19.3-2.3,29c-2,16.7-9,32.2-20,45c-13,15.2-29,25.4-46.7,34.3
		c-34.1,17-71.8,25.3-109,32.8c-79.1,15.8-159.7,20.5-240,24c-55.9,2.4-112,7-168,7c4.4,2.6,10,2.7,15,3.4c10.3,1.5,20.6,2.6,31,3.8
		c31.7,3.4,63.2,9.7,95,11.9c138.5,9.7,283.4,10.4,416-36.8c7.8-2.8,15.5-5.9,23-9.3c11.6-5.3,22-12.8,32-20.8
		c8.9-7.1,18.5-14.1,25.5-23.2c13.3-17.3,14.6-39.8,2.8-58c-6.2-9.6-15.5-17.1-24.3-24.2C1430.8,660.6,1421.2,653,1410,649.2z"/>
	<path class="st5" d="M933.7,650.5c-0.4,0.4,0.6,0.4,0.7,0.3C934.8,650.4,933.7,650.5,933.7,650.5 M931,651.2l1,1L931,651.2
		 M1230,651.2c-1,1.5-1,1.2-1,3C1230.3,652.8,1230.4,653,1230,651.2 M929,652.2l1,1L929,652.2 M926.7,653.5
		c-0.4,0.4,0.6,0.4,0.7,0.3C927.8,653.4,926.7,653.5,926.7,653.5 M924.7,654.5c-0.4,0.4,0.6,0.4,0.7,0.3
		C925.8,654.4,924.7,654.5,924.7,654.5 M1228,654.2c-1,1.5-1,1.2-1,3C1228.3,655.8,1228.4,656,1228,654.2 M922,655.2l1,1L922,655.2
		 M920,656.2l1,1L920,656.2 M917.7,657.5c-0.4,0.4,0.6,0.4,0.7,0.3C918.8,657.4,917.7,657.5,917.7,657.5 M1226,657.2
		c-1,1.5-1,1.2-1,3C1226.3,658.8,1226.4,659,1226,657.2 M915,658.2l1,1L915,658.2 M913,659.2l1,1L913,659.2 M911,660.2l1,1
		L911,660.2 M1224,660.2l1,1L1224,660.2 M908,661.2l1,1L908,661.2 M1223.3,661.9c0,0.1-0.1,1.1,0.3,0.7
		C1223.7,662.5,1223.8,661.4,1223.3,661.9 M906,662.2l1,1L906,662.2 M904,663.2l1,1L904,663.2 M1222,663.2l1,1L1222,663.2
		 M901.7,664.5c-0.4,0.4,0.6,0.4,0.7,0.3C902.8,664.4,901.7,664.5,901.7,664.5 M1221,664.2l1,1L1221,664.2 M899,665.2l1,1L899,665.2
		 M1220.3,665.9c0,0.1-0.1,1.1,0.3,0.7C1220.7,666.5,1220.8,665.4,1220.3,665.9 M897,666.2l1,1L897,666.2 M894.7,667.5
		c-0.4,0.4,0.6,0.4,0.7,0.3C895.8,667.4,894.7,667.5,894.7,667.5 M1219,667.2l1,1L1219,667.2 M892.7,668.5c-0.4,0.4,0.6,0.4,0.7,0.3
		C893.8,668.4,892.7,668.5,892.7,668.5 M1218,668.2l1,1L1218,668.2 M890,669.2l1,1L890,669.2 M1217,669.2l1,1L1217,669.2
		 M887.7,670.5c-0.4,0.4,0.6,0.4,0.7,0.3C888.8,670.4,887.7,670.5,887.7,670.5 M885.7,671.5c-0.4,0.4,0.6,0.4,0.7,0.3
		C886.8,671.4,885.7,671.5,885.7,671.5 M1216,671.2l1,1L1216,671.2 M883.7,672.5c-0.4,0.4,0.6,0.4,0.7,0.3
		C884.8,672.4,883.7,672.5,883.7,672.5 M1215,672.2l1,1L1215,672.2 M880.7,673.5c-0.4,0.4,0.6,0.4,0.7,0.3
		C881.8,673.4,880.7,673.5,880.7,673.5 M1214,673.2l1,1L1214,673.2 M878.7,674.5c-0.4,0.4,0.6,0.4,0.7,0.3
		C879.8,674.4,878.7,674.5,878.7,674.5 M1213,674.2l1,1L1213,674.2 M876.7,675.5c-0.4,0.4,0.6,0.4,0.7,0.3
		C877.8,675.4,876.7,675.5,876.7,675.5 M1212,675.2l1,1L1212,675.2 M874.7,676.5c-0.4,0.4,0.6,0.4,0.7,0.3
		C875.8,676.4,874.7,676.5,874.7,676.5 M1211,676.2l1,1L1211,676.2 M871.7,677.5c-0.4,0.4,0.6,0.4,0.7,0.3
		C872.8,677.4,871.7,677.5,871.7,677.5 M869.7,678.5c-0.4,0.4,0.6,0.4,0.7,0.3C870.8,678.4,869.7,678.5,869.7,678.5 M867.7,679.5
		c-0.4,0.4,0.6,0.4,0.7,0.3C868.8,679.4,867.7,679.5,867.7,679.5 M1209,679.2l1,1L1209,679.2 M865.7,680.5c-0.4,0.4,0.6,0.4,0.7,0.3
		C866.8,680.4,865.7,680.5,865.7,680.5 M1208,680.2l1,1L1208,680.2 M862.7,681.5c-0.4,0.4,0.6,0.4,0.7,0.3
		C863.8,681.4,862.7,681.5,862.7,681.5 M1207,681.2l1,1L1207,681.2 M860.7,682.5c-0.4,0.4,0.6,0.4,0.7,0.3
		C861.8,682.4,860.7,682.5,860.7,682.5 M1206,682.2l1,1L1206,682.2 M858.7,683.5c-0.4,0.4,0.6,0.4,0.7,0.3
		C859.8,683.4,858.7,683.5,858.7,683.5 M1205,683.2l1,1L1205,683.2 M856.7,684.5c-0.4,0.4,0.6,0.4,0.7,0.3
		C857.8,684.4,856.7,684.5,856.7,684.5 M1204,684.2l1,1L1204,684.2 M854,685.2l1,1L854,685.2 M1203,685.2l1,1L1203,685.2 M852,686.2
		l1,1L852,686.2 M1202,686.2l1,1L1202,686.2 M850,687.2l1,1L850,687.2 M1201,687.2l1,1L1201,687.2 M848,688.2l1,1L848,688.2
		 M1200,688.2l1,1L1200,688.2 M1123,689.2l1,1L1123,689.2 M1199,689.2l1,1L1199,689.2 M1198,690.2l1,1L1198,690.2 M1197,691.2l1,1
		L1197,691.2 M1118,692.2l1,1L1118,692.2 M1117,693.2l1,1L1117,693.2 M1194,693.2l1,1L1194,693.2 M1193,694.2l1,1L1193,694.2
		 M1192,695.2l1,1L1192,695.2 M1191,696.2l1,1L1191,696.2 M1190,697.2l1,1L1190,697.2 M1187,699.2l1,1L1187,699.2 M1186,700.2l1,1
		L1186,700.2 M1185,701.2l1,1L1185,701.2 M1182,704.2c1.6-0.7,1.8-0.8,3-2C1183.4,702.9,1183.2,703,1182,704.2 M1181,704.2l1,1
		L1181,704.2 M1180,705.2l1,1L1180,705.2 M1178.7,706.5c-0.5,0.4,0.6,0.4,0.7,0.3C1179.8,706.4,1178.7,706.5,1178.7,706.5
		 M1177,707.2l1,1L1177,707.2 M864,708.2l1,1L864,708.2 M1175.7,708.5c-0.5,0.4,0.6,0.4,0.7,0.3
		C1176.8,708.4,1175.7,708.5,1175.7,708.5 M865.7,709.5c-0.4,0.4,0.6,0.4,0.7,0.3C866.8,709.4,865.7,709.5,865.7,709.5 M1174,709.2
		l1,1L1174,709.2 M867,710.2l1,1L867,710.2 M1171,712.2c1.6-0.7,1.8-0.8,3-2C1172.4,710.9,1172.2,711,1171,712.2 M869,711.2l1,1
		L869,711.2 M871,712.2l1,1L871,712.2 M1168,714.2c1.6-0.7,1.8-0.8,3-2C1169.4,712.9,1169.2,713,1168,714.2 M1166.7,714.5
		c-0.5,0.4,0.6,0.4,0.7,0.3C1167.8,714.4,1166.7,714.5,1166.7,714.5 M1165,715.2l1,1L1165,715.2 M1163.7,716.5
		c-0.5,0.4,0.6,0.4,0.7,0.3C1164.8,716.4,1163.7,716.5,1163.7,716.5 M1161.7,717.5c-0.5,0.4,0.6,0.4,0.7,0.3
		C1162.8,717.4,1161.7,717.5,1161.7,717.5 M882,718.2l1,1L882,718.2 M1159.7,718.5c-0.5,0.4,0.6,0.4,0.7,0.3
		C1160.8,718.4,1159.7,718.5,1159.7,718.5 M884,719.2l1,1L884,719.2 M1157.7,719.5c-0.5,0.4,0.6,0.4,0.7,0.3
		C1158.8,719.4,1157.7,719.5,1157.7,719.5 M886,720.2l1,1L886,720.2 M1153,721.2c1.8,0.6,2.1,0.5,4,0
		C1155.3,720.8,1154.8,720.9,1153,721.2 M888,721.2l1,1L888,721.2 M890,722.2l1,1L890,722.2 M1151.7,722.5c-0.5,0.4,0.6,0.4,0.7,0.3
		C1152.8,722.4,1151.7,722.5,1151.7,722.5 M892,723.2l1,1L892,723.2 M1149.7,723.5c-0.5,0.4,0.6,0.4,0.7,0.3
		C1150.8,723.4,1149.7,723.5,1149.7,723.5z"/>
	<path class="st0" d="M740,724.2c6,2.5,13.6,2,20,2C754.3,723.8,746.2,724.2,740,724.2z"/>
	<path class="st5" d="M894,724.2l1,1L894,724.2 M1147.7,724.5c-0.5,0.4,0.6,0.4,0.7,0.3C1148.8,724.4,1147.7,724.5,1147.7,724.5
		 M896,725.2l1,1L896,725.2 M1144.7,725.5c-0.5,0.4,0.6,0.4,0.7,0.3C1145.8,725.4,1144.7,725.5,1144.7,725.5z"/>
	<path class="st0" d="M761,726.2c2.9,1.2,5.9,1,9,1C767.1,726,764.1,726.2,761,726.2z"/>
	<path class="st5" d="M898,726.2l1,1L898,726.2 M1142.7,726.5c-0.5,0.4,0.6,0.4,0.7,0.3C1143.8,726.4,1142.7,726.5,1142.7,726.5z"/>
	<path class="st0" d="M774,727.2c2.1,0.9,3.7,1,6,1C777.9,727.3,776.3,727.2,774,727.2z"/>
	<path class="st5" d="M900,727.2l1,1L900,727.2 M1139,727.2c1.3,0.7,1.6,0.7,3,1C1140.8,727.5,1140.4,727.5,1139,727.2
		 M1137.7,728.5c-0.5,0.4,0.6,0.4,0.7,0.3C1138.8,728.4,1137.7,728.5,1137.7,728.5 M1133,729.2c1.3,0.7,1.6,0.7,3,1
		C1134.8,729.5,1134.4,729.5,1133,729.2 M1130.7,730.5c-0.5,0.4,0.6,0.4,0.7,0.3C1131.8,730.4,1130.7,730.5,1130.7,730.5
		 M1126,731.2c1.3,0.7,1.6,0.8,3,1C1127.8,731.5,1127.4,731.5,1126,731.2 M1123,732.2c1.3,0.7,1.6,0.8,3,1
		C1124.8,732.5,1124.4,732.5,1123,732.2 M913,733.2l1,1L913,733.2 M1119.7,733.5c-0.5,0.5,0.6,0.4,0.7,0.3
		C1120.8,733.4,1119.7,733.5,1119.7,733.5 M915,734.2l1,1L915,734.2 M1114.7,734.5c-0.5,0.5,0.6,0.4,0.7,0.3
		C1115.8,734.4,1114.7,734.5,1114.7,734.5 M917.7,735.5c-0.4,0.5,0.6,0.4,0.7,0.3C918.8,735.4,917.7,735.5,917.7,735.5 M1108,735.2
		c1.5,0.7,2.3,0.8,4,1C1110.5,735.5,1109.7,735.4,1108,735.2 M919.7,736.5c-0.4,0.5,0.6,0.4,0.7,0.3
		C920.8,736.4,919.7,736.5,919.7,736.5 M1103,736.2c1.5,0.7,2.3,0.8,4,1C1105.5,736.5,1104.7,736.4,1103,736.2 M922,737.2l1,1
		L922,737.2z"/>
	<path class="st3" d="M1091,737.2c1.5,0.7,2.3,0.8,4,1C1093.5,737.5,1092.7,737.4,1091,737.2z"/>
	<path class="st5" d="M924,738.2l1,1L924,738.2z"/>
	<path class="st3" d="M1084.7,738.5c-0.5,0.5,0.6,0.4,0.7,0.3C1085.8,738.4,1084.7,738.5,1084.7,738.5z"/>
	<path class="st5" d="M926,739.2l1,1L926,739.2 M928.7,740.5c-0.4,0.5,0.6,0.4,0.7,0.3C929.8,740.4,928.7,740.5,928.7,740.5
		 M931,741.2l1,1L931,741.2 M933.7,742.5c-0.4,0.5,0.6,0.4,0.7,0.3C934.8,742.4,933.7,742.5,933.7,742.5 M1027,742.2l1,1L1027,742.2
		 M936,743.2l1,1L936,743.2 M938,744.2l1,1L938,744.2 M941,745.2l1,1L941,745.2 M943,746.2l1,1L943,746.2 M946,747.2l1,1L946,747.2
		 M949,748.2l1,1L949,748.2 M954,750.2l1,1L954,750.2 M957,751.2l1,1L957,751.2 M960,752.2l1,1L960,752.2 M1061,752.2l1,1
		L1061,752.2 M963,753.2l1,1L963,753.2 M1065.7,753.5c-0.5,0.5,0.6,0.4,0.7,0.3C1066.8,753.4,1065.7,753.5,1065.7,753.5 M966,754.2
		l1,1L966,754.2 M1070.7,754.5c-0.5,0.5,0.6,0.4,0.7,0.3C1071.8,754.4,1070.7,754.5,1070.7,754.5 M1075,755.2c1.3,0.7,1.6,0.8,3,1
		C1076.8,755.5,1076.4,755.5,1075,755.2 M1081,756.2c1.3,0.7,1.6,0.8,3,1C1082.8,756.5,1082.4,756.5,1081,756.2z"/>
	<path class="st3" d="M1099,759.2c2.1,0.9,3.8,0.9,6,1C1102.9,759.3,1101.3,759.3,1099,759.2z"/>
	<path class="st5" d="M1206,767.2l1,1L1206,767.2 M1203,768.2l1,1L1203,768.2 M1199.7,769.5c-0.5,0.5,0.6,0.4,0.7,0.3
		C1200.8,769.4,1199.7,769.5,1199.7,769.5z"/>
	<path class="st4" d="M503,771.2c8.8,12.2,27.2,18.2,40,25.4c36.3,20.4,74.5,37.4,113,53c94.3,38.2,194.8,61.7,296,71.4
		c25.3,2.4,50.6,2.6,76,3.2c59.4,1.5,119.4-0.1,178-11.8c52.7-10.5,105.5-23.6,155-44.9c12.8-5.5,25.8-11.7,37-20.2
		c5.6-4.3,11.4-9.4,14-16.1c-19.3,1.6-39.5,10.7-58,16.3c-31,9.3-62.5,16.8-94,24.1c-83.7,19.2-171.5,25.4-257,19.6
		c-44.2-3-88.4-8.3-132-16.7c-33.6-6.5-66.6-15.4-100-22.8c-37-8.1-74.6-12.2-111-23.1c-36.8-11-74.2-22.5-110-36.3
		c-9.6-3.7-18.8-8.6-28-13.2C515.9,775.9,509.9,772.2,503,771.2 M522,961.2c5.8,4.3,15.1,5.3,22,6.8c15.9,3.4,32,5.9,48,9
		c62.4,12,126.1,18.5,189,27.3c11.3,1.6,22.6,4.5,34,5.7c25.3,2.7,50.7,3.5,76,5.3c31.6,2.2,63.3,5.5,95,6.9c27.5,1.2,55.4,0,83,0
		c62.4,0,125.1-0.1,187-8.3c42.2-5.5,84.6-12.8,126-22.6c34.4-8.2,68.1-18.8,102-28.7c62.3-18.2,123.1-45,179-78.2
		c13.5-8,27.2-15.7,40-24.8c6.6-4.6,13.3-8.8,18-15.4c-13.5,3.7-25.7,12.4-38,18.7c-23.1,11.9-46.7,22.6-71,31.8
		c-85.1,32.4-173,55-263,69c-84.5,13.1-169.8,19.7-255,23.5c-24.3,1.1-48.7,3.3-73,3.9c-16.7,0.4-33.4-0.6-50-1
		c-38.1-0.9-76-1.3-114-3c-45-2-90.1-2.1-135-5.1c-41.8-2.9-83.3-6.1-125-11.1c-15-1.8-30-3.9-45-6.1
		C542,963.5,532.1,961.2,522,961.2z"/>
	<path class="st5" d="M1317.7,855.5c-0.5,0.5,0.6,0.4,0.7,0.3C1318.8,855.4,1317.7,855.5,1317.7,855.5 M1313.7,856.5
		c-0.5,0.5,0.6,0.4,0.7,0.3C1314.8,856.4,1313.7,856.5,1313.7,856.5 M1309.7,857.5c-0.5,0.5,0.6,0.4,0.7,0.3
		C1310.8,857.4,1309.7,857.5,1309.7,857.5 M1305.7,858.5c-0.5,0.5,0.6,0.4,0.7,0.3C1306.8,858.4,1305.7,858.5,1305.7,858.5z"/>
	<path class="st0" d="M1393,1148.2c128.8-25,249.8-78.6,352-161.2c26.6-21.5,51.4-45.3,74.2-70.8c8.8-9.9,19.9-20,25.8-32
		c-6.8,2.2-12.5,7.4-18,11.8c-8.6,6.9-17.1,13.9-26,20.5c-29.8,22-60.9,41.9-93,60.3c-47.4,27.2-97.1,50.9-148,70.6
		c-13.8,5.4-27.8,10.4-42,14.8c-10.8,3.4-21.9,5.5-32,10.8c-26.2,13.8-50.3,34.5-73,53.3C1407,1131.3,1391.8,1139.5,1393,1148.2
		 M1153,887.2c3.2,1.3,6.6,1,10,1C1159.8,886.9,1156.4,887.2,1153,887.2 M1143,888.2c3.2,1.3,6.6,1,10,1
		C1149.8,887.9,1146.4,888.2,1143,888.2 M1128,889.2c4.2,1.8,9.5,1,14,1C1137.8,888.4,1132.5,889.2,1128,889.2 M1080,891.2
		c4.5,1.9,10.2,1,15,1c11.1,0,21.9-1,33-1c-6.8-2.9-16.8-0.9-24-0.2C1096.1,891.8,1087.9,891.2,1080,891.2z"/>
	<path class="st3" d="M318,954.2c9.7,8,22.4,10,34,13.4c12.2,3.6,23.7,9,36,12.6c55.1,15.9,110.8,29,167,39.8
		c25,4.8,49.9,10.5,75,14.8c56.8,9.5,113.9,16.9,171,23.7c34.4,4.1,68.4,10.3,103,12.6c46.8,3.2,94,2.1,141,2.1
		c64.2,0,128.6,1.3,192-9.3c68.3-11.4,136.1-24.9,201-49.6c14.8-5.6,29.2-12.2,44-17.8c5.8-2.2,13.7-2.6,17-8.4
		c-13.8,2.9-26.9,9.1-40,14.2c-16.4,6.4-33.2,12.1-50,17.5c-54.5,17.4-110.5,30.2-167,38.9c-66.5,10.3-133,10.7-200,10.4
		c-69.3-0.3-138.1-1.7-207-9.2c-19-2.1-37.9-6.2-57-8.5c-26.5-3.3-53.7-4.1-80-8.6c-30.4-5.1-60.7-12.1-91-17.9
		c-48.2-9.3-96.1-19.7-144-30.4c-31.2-6.9-64.8-13.3-94-26.4c7.7-1.2,17.4,2.7,25,4.2c16.6,3.3,33.4,6.1,50,9.2
		c55.9,10.4,111.9,20.2,168,29.5c105.1,17.4,211.7,31.7,318,39c39.6,2.7,80.3,1.9,120,0.1c36.4-1.6,72.7-1.5,109-4
		c48.6-3.3,96.7-10.2,145-17c16.4-2.3,32.8-5.3,49-8.5c10.3-2.1,21.5-3.8,31-8.6c-3.6-1.3-7.3,0.1-11,0.8c-7.3,1.3-14.7,2.6-22,3.8
		c-26.6,4.5-53.2,9-80,12.3c-42.1,5.1-83.8,11.2-126,14.1c-48.3,3.3-97.5,1.1-146,1.1c-33.7,0-67.4,0.2-101-2.1
		c-42.1-2.9-84-9.2-126-13.7c-83.2-8.9-165.5-22.1-248-36.4c-42.8-7.4-85.4-15.4-128-23.9C370.5,962.9,344,955.3,318,954.2z"/>
	<path class="st2" d="M369,967.2c5,5.3,13.2,6.9,20,8.9c13.3,3.8,26.6,7.2,40,10.5c53.7,13.4,107.8,24.8,162,35.6
		c35.2,7,70.6,14.8,106,20.7c26.3,4.4,53.5,5.3,80,8.6c19.1,2.3,38,6.5,57,8.5c68.9,7.5,137.7,8.8,207,9.2c44.8,0.2,90.2,1,135-2.1
		c39.5-2.7,79.2-9.8,118-17.5c39.2-7.8,77.9-17.6,116-29.7c25.7-8.2,50.7-18.3,76-27.6c15.7-5.7,32-8.3,47-15.8c6-3,12.9-6,16-12.3
		c-11.3-2.8-23.5,7.7-34,10.8c-6.9,2.1-14.1,3.1-21,5.2c-22.1,6.8-43.6,15-66,20.6c-13.4,3.4-27.8,5.3-41,9.5
		c-8.8,2.8-16.8,6.7-26,8.7c-74.9,16-151.8,23.9-228,29.1c-27.9,1.9-56,0.9-84,2.1c-39,1.7-79,2.5-118-0.1c-30.1-2.1-60-5.7-90-8.7
		c-74.3-7.4-148.3-17.1-222-29.3c-57.8-9.6-115.4-20-173-30.3c-16.3-2.9-32.7-5.7-49-9C387.8,971,378.3,968,369,967.2z"/>
	<path class="st0" d="M519,1069.2c4.3,8.3,18.7,11,27,14.1c26.1,9.6,53.1,17.7,80,24.8c72.2,19.1,143.9,36.9,218,46.8
		c24.9,3.3,50,7.5,75,9.2c7,0.5,14,1.2,21,1.1c5.6-0.1,10.5-1,16,0v2c-35.5,8.2-70.7,15.4-107,18.8c-11.6,1.1-23.3,0.7-35,1.2
		c-42.5,1.9-85.6,1.9-128-2.2c-21.8-2.1-42.8-7.1-64-12.7c-12.2-3.2-24.3-8.1-37-9.1c2.8,7.3,9.3,12.3,15,17.3c8,7,15.9,14,24,20.8
		c38.3,32,80.5,58.5,124,82.8c87.1,48.6,177.5,88.1,273,116.9c25.5,7.7,51.1,15,77,21.2c18,4.3,36.5,8.8,55,10
		c29.5,2,62.2,0.7,91-6.2c23-5.4,46.1-15.7,70-16.8c-14.6,20.3-43.5,24.5-61,41c9.7,4.9,22.3,4.9,33,6.2c19.3,2.3,38.6,4.4,58,4.8
		c9.7,0.2,20.9,3.4,30-1c-17-44.1-23.3-94.1-17.7-141c1-8,2.1-16.2,4.4-24c2.4-8,6.1-15.8,7.3-24c-43.6,10-87.4,20.4-132,25.7
		c-33.1,3.9-66.7,4.5-100,5.3c-72.3,1.8-144.6-2.6-216-15.4c-32.7-5.9-65.2-13.7-97-23.6c-14.4-4.5-28.5-10.8-43-15
		c9.9-2.9,21.9-0.8,32-0.1c17,1.2,34,1.8,51,3c18,1.2,36,0.3,54,1.1c36.1,1.6,72.8,1.8,109,0.9c72.9-1.8,146.2-6.7,218-20.8
		c75.4-14.8,148.2-39.8,219-69.2c-4.7-1.9-10.2,0-15,1c-11.3,2.3-22.6,5-34,7.2c-28.4,5.4-57.3,8.5-86,12c-12,1.4-26,5.8-38,3.8v-2
		c6.3-3.3,11.5-8.8,17-13.2c10.6-8.5,21.3-17,32-25.4c14-10.9,28.2-21.5,42-32.6c7.2-5.8,15.6-11.2,21-18.8c-18,0.1-36.3,5.4-54,8.6
		c-27.9,5-55.9,8.7-84,12.1c-49.8,6.1-99.9,9.1-150,11.3c-35.9,1.6-72,2.8-108,1.9s-72.1-4.4-108-7.8c-72.8-7-145.5-13.4-218-24.6
		c-31.7-4.9-63.4-10.3-95-16.2C563.2,1076.5,541.1,1071,519,1069.2z"/>
	<path class="st5" d="M528,1070.2c1.2,0.7,1.5,0.8,3,1C529.8,1070.5,529.5,1070.5,528,1070.2 M533,1071.2c1.5,0.7,2.3,0.8,4,1
		C535.5,1071.5,534.7,1071.4,533,1071.2z"/>
</g>
<g id="Слой_2">
	<g>
		<path class="st6" d="M2049.3,1559.3c-152.6-40.3-307.4-71.8-463.7-93.1c-493.7-67.5-997.3-34.1-1478.9,93.1
			c44.9-133.7,89.8-267.3,134.7-401c423.1-4.6,846.3-5.8,1269.4-3.4c134.6,0.8,269.3,1.9,403.9,3.4
			C1959.5,1292,2004.4,1425.6,2049.3,1559.3z"/>
		<g>
			<path class="st7" d="M350.8,1410.5c57.3-73.5,115-146.6,172.8-219.7c17-0.5,34-0.9,51-1.3c-73.5,92.9-147.4,185.5-220.4,278.8
				c-14.8,2.7-29.7,5.5-44.5,8.3c-24.5-90.9-40.9-183.4-52.2-276.8c17-0.7,34-1.3,51-2C318.8,1269.5,332.5,1340.5,350.8,1410.5z"/>
			<path class="st7" d="M644.7,1187.9c49.2-1,98.4-1.9,147.6-2.6c11.6-0.3,22.9,4,30.9,12.4c7.8,8.2,11.2,19.6,9.5,30.9
				c-6.3,46.5-12.7,93-19,139.5c-1.8,13-9.6,24.1-19.6,32.1c-11,8.8-24.6,14.5-38.8,15.6c-55.6,4.6-111,10.2-166.3,16.8
				c-11.9,1.7-24.9-0.4-33.6-9.3c-8.4-8.6-9.7-21.1-6.7-32.3c12.6-51.2,25.2-102.5,37.8-153.7c3.4-13.6,11.5-25.7,22-34.7
				C618.5,1194.1,631.2,1188.2,644.7,1187.9z M599.1,1387.8c54.2-5.6,108.5-10.4,162.9-14.2c1.5-0.1,2.3-0.9,2.6-2.4
				c7.5-47.1,15-94.3,22.5-141.4c0.2-1.5-0.3-2.2-1.7-2.2c-50.3,1.4-100.7,3.1-151,5.2c-1.6,0.1-2.6,0.9-2.9,2.5
				c-11.5,50.1-22.9,100.3-34.4,150.4C596.7,1387.3,597.4,1388,599.1,1387.8z"/>
			<path class="st7" d="M1116.4,1226.1c0.4,19.7,0.9,39.5,1.3,59.2c0.3,11.7-5.3,22.4-14.1,29.8c-9.9,8.3-22.8,12.5-35.7,12.5
				c-5.7,0-8.5,0-14.1,0c21.9,22,44,43.6,66.3,65.1c0.1,4.2,0.1,6.2,0.2,10.4c-18.1-0.2-36.2-0.2-54.3-0.2
				c-25.4-24.5-50.4-49.3-74.9-74.6c-28.2,0.5-56.3,1.2-84.4,2.1c-0.4,0-0.7,0-1.1,0c-2.4,25.5-4.7,51-7.1,76.5
				c-16.6,0.7-33.2,1.6-49.8,2.5c8.8-74.9,17.5-149.8,26.3-224.7c64.6-0.6,129.2-1,193.7-1c12.3-0.1,24.2,4.4,33.2,12.5
				C1110.5,1203.8,1116.2,1214.5,1116.4,1226.1z M911.8,1289.5c52.1-1.3,104.2-2,156.3-2.1c1.7,0,2.5-0.7,2.5-2.1
				c0.1-19.7,0.2-39.4,0.2-59.2c0-1.4-0.8-2.1-2.4-2.1c-50.3,0.1-100.5,0.5-150.8,1.2c-1.6,0-2.5,0.8-2.6,2.2
				c-1.9,20-3.7,40-5.6,60.1C909.4,1288.8,910.2,1289.5,911.8,1289.5z"/>
			<path class="st7" d="M1138.9,1183.4c80.2,0.3,160.3,1,240.4,2.1c2.4,14.2,4.8,28.3,7.1,42.5c-33.4-0.9-66.8-1.8-100.1-2.4
				c7.2,61.3,14.4,122.5,21.5,183.8c-16.7-1-33.4-1.8-50.2-2.6c-5.6-60.7-11.2-121.4-16.9-182.1c-33.5-0.5-67-0.8-100.5-1.1
				C1139.8,1210.3,1139.4,1196.9,1138.9,1183.4z"/>
			<path class="st7" d="M1626,1190.7c4.3,15.9,8.6,31.8,12.8,47.6c-60.2-3.1-120.4-5.8-180.6-8c3.6,17.9,7.2,35.7,10.8,53.6
				c49.9,2.8,99.7,6.2,149.5,10c4,15.6,8,31.2,12.1,46.7c-50.9-5-101.8-9.4-152.8-13.1c3.6,17.9,7.2,35.7,10.8,53.6
				c65,6,129.9,13.2,194.7,21.8c4.3,15.9,8.6,31.8,12.8,47.6c-82.6-12.7-165.5-22.9-248.8-30.7c-14.1-78-28.2-155.9-42.3-233.9
				C1478.7,1187.2,1552.3,1188.7,1626,1190.7z"/>
			<path class="st7" d="M1848.4,1197.9c16.1,0.6,32.2,1.2,48.3,1.9c2,6,3,9,5,15c-14.7,43.1-31.4,85.3-50.3,126.8
				c48.4,50.2,96.1,101.1,143,152.7c2,6,3,9,5,15c-18-4.2-36-8.2-54-12.2c-36.8-39.6-74-78.8-111.5-117.7
				c-15.2,29.3-31.5,57.9-49,85.9c-18.1-3.2-36.2-6.3-54.3-9.3c-1.4-5.1-2.2-7.7-3.6-12.9c23-35.3,44-71.5,63.3-109
				c-42.9-43.7-86.3-86.9-130-129.8c-1.4-5.1-2.2-7.7-3.6-12.9c16.1,0.5,32.2,0.9,48.4,1.4c34.6,34.2,69,68.6,103,103.3
				C1822.8,1264,1836.2,1231.2,1848.4,1197.9z"/>
		</g>
	</g>
</g>
</svg>
